<svg xmlns="http://www.w3.org/2000/svg" xmlns:xlink="http://www.w3.org/1999/xlink" width="19.5" height="19.5" viewBox="0 0 19.5 19.5" fill="none">
<path d="M0 2.75C0 1.23122 1.23122 0 2.75 0L16.75 0C18.2688 0 19.5 1.23122 19.5 2.75L19.5 16.75C19.5 18.2688 18.2688 19.5 16.75 19.5L2.75 19.5C1.23122 19.5 0 18.2688 0 16.75L0 2.75ZM2.75 1.5C2.05964 1.5 1.5 2.05964 1.5 2.75L1.5 16.75C1.5 17.4404 2.05964 18 2.75 18L16.75 18C17.4404 18 18 17.4404 18 16.75L18 2.75C18 2.05964 17.4404 1.5 16.75 1.5L2.75 1.5Z" fill-rule="evenodd"  fill="#000000" >
</path>
<path d="M9.75 9C10.1642 9 10.5 9.33579 10.5 9.75L10.5 13.75C10.5 14.1642 10.1642 14.5 9.75 14.5C9.33579 14.5 9 14.1642 9 13.75L9 9.75C9 9.33579 9.33579 9 9.75 9Z" fill-rule="evenodd"  fill="#000000" >
</path>
<path d="M10.75 6.75C10.75 7.30228 10.3023 7.75 9.75 7.75C9.19771 7.75 8.75 7.30228 8.75 6.75C8.75 6.19772 9.19771 5.75 9.75 5.75C10.3023 5.75 10.75 6.19772 10.75 6.75Z"   fill="#000000" >
</path>
</svg>
