<svg xmlns="http://www.w3.org/2000/svg" xmlns:xlink="http://www.w3.org/1999/xlink" width="24" height="24" viewBox="0 0 24 24" fill="none">
<path d="M19 2L9 2C7.897 2 7 2.897 7 4L7 10L5 10C3.897 10 3 10.897 3 12L3 21C3 21.552 3.447 22 4 22L12 22L20 22C20.553 22 21 21.552 21 21L21 4C21 2.897 20.103 2 19 2ZM5 12L8 12L11 12L11 14L11 16L11 20L5 20L5 12ZM19 20L13 20L13 16L13 14L13 12C13 10.897 12.103 10 11 10L9 10L9 4L19 4L19 20Z" fill-rule="evenodd" style="mix-blend-mode:normal" fill="#217EFD" >
</path>
<path d="M11 6L13 6L13 8L11 8L11 6ZM15 6L17 6L17 8L15 8L15 6ZM15 10.031L17 10.031L17 12L15 12L15 10.031ZM15 14L17 14L17 16L15 16L15 14ZM7 14.001L9 14.001L9 16.001L7 16.001L7 14.001Z"  style="mix-blend-mode:normal" fill="#217EFD" >
</path>
</svg>
