<svg xmlns="http://www.w3.org/2000/svg" xmlns:xlink="http://www.w3.org/1999/xlink" width="24" height="24" viewBox="0 0 24 24" fill="none">
<path d="M7 2.75L17 2.75C19.6234 2.75 21.75 4.87665 21.75 7.5L21.75 18C21.75 20.6234 19.6234 22.75 17 22.75L7 22.75C4.37665 22.75 2.25 20.6234 2.25 18L2.25 7.5C2.25 4.87665 4.37665 2.75 7 2.75ZM7 4.25C5.20507 4.25 3.75 5.70507 3.75 7.5L3.75 18C3.75 19.7949 5.20507 21.25 7 21.25L17 21.25C18.7949 21.25 20.25 19.7949 20.25 18L20.25 7.5C20.25 5.70507 18.7949 4.25 17 4.25L7 4.25Z"   fill="#515151" >
</path>
<path d="M3 8.25L21 8.25L21 9.75L3 9.75L3 8.25ZM3 9.75C2.58579 9.75 2.25 9.41421 2.25 9C2.25 8.58579 2.58579 8.25 3 8.25C3.41421 8.25 3.75 8.58579 3.75 9C3.75 9.41421 3.41421 9.75 3 9.75ZM21 9.75C20.5858 9.75 20.25 9.41421 20.25 9C20.25 8.58579 20.5858 8.25 21 8.25C21.4142 8.25 21.75 8.58579 21.75 9C21.75 9.41421 21.4142 9.75 21 9.75Z"   fill="#515151" >
</path>
<path d="M8.75 2L8.75 5L7.25 5L7.25 2L8.75 2ZM8 2.75C7.58579 2.75 7.25 2.41421 7.25 2C7.25 1.58579 7.58579 1.25 8 1.25C8.41421 1.25 8.75 1.58579 8.75 2C8.75 2.41421 8.41421 2.75 8 2.75ZM8 5.75C7.58579 5.75 7.25 5.41421 7.25 5C7.25 4.58579 7.58579 4.25 8 4.25C8.41421 4.25 8.75 4.58579 8.75 5C8.75 5.41421 8.41421 5.75 8 5.75Z"   fill="#515151" >
</path>
<path d="M16.75 2L16.75 5L15.25 5L15.25 2L16.75 2ZM16 2.75C15.5858 2.75 15.25 2.41421 15.25 2C15.25 1.58579 15.5858 1.25 16 1.25C16.4142 1.25 16.75 1.58579 16.75 2C16.75 2.41421 16.4142 2.75 16 2.75ZM16 5.75C15.5858 5.75 15.25 5.41421 15.25 5C15.25 4.58579 15.5858 4.25 16 4.25C16.4142 4.25 16.75 4.58579 16.75 5C16.75 5.41421 16.4142 5.75 16 5.75Z"   fill="#515151" >
</path>
<circle cx="12" cy="15" r="1"   fill="#515151" >
</circle>
<circle cx="16" cy="15" r="1"   fill="#515151" >
</circle>
<circle cx="8" cy="15" r="1"   fill="#515151" >
</circle>
</svg>
