<svg xmlns="http://www.w3.org/2000/svg" xmlns:xlink="http://www.w3.org/1999/xlink" width="24" height="24" viewBox="0 0 24 24" fill="none">
<path d="M7 11L9 11L9 13L7 13L7 11ZM7 15L9 15L9 17L7 17L7 15ZM11 11L13 11L13 13L11 13L11 11ZM11 15L13 15L13 17L11 17L11 15ZM15 11L17 11L17 13L15 13L15 11ZM15 15L17 15L17 17L15 17L15 15Z"  style="mix-blend-mode:normal" fill="#79747e" >
</path>
<path d="M5 22L19 22C20.103 22 21 21.103 21 20L21 8L21 6C21 4.897 20.103 4 19 4L17 4L17 2L15 2L15 4L9 4L9 2L7 2L7 4L5 4C3.897 4 3 4.897 3 6L3 8L3 20C3 21.103 3.897 22 5 22ZM19 8L19.001 20L5 20L5 8L19 8Z"  style="mix-blend-mode:normal" fill="#79747e" >
</path>
</svg>
