<svg t="1728385099788" class="icon" viewBox="0 0 1024 1024" version="1.1" xmlns="http://www.w3.org/2000/svg" p-id="135532" width="200" height="200"><path d="M768 800H256a32 32 0 0 1 0-64h512a32 32 0 1 1 0 64zM662.656 470.176a32 32 0 0 1-0.96 0.96L470.4 662.4A32 32 0 0 1 448 672h-96a32 32 0 0 1-32-32v-96a32 32 0 0 1 9.28-22.72l288-288a32 32 0 0 1 45.12 0l96 96a32 32 0 0 1 0 45.12l-95.744 95.744zM543.84 397.312L384 557.12V608h50.88l159.84-159.84-50.88-50.88z m45.12-45.12l50.88 50.88L690.88 352 640 301.12l-51.04 51.04z" p-id="135533"></path></svg>