<svg xmlns="http://www.w3.org/2000/svg" xmlns:xlink="http://www.w3.org/1999/xlink" width="20.001953125" height="17.500244140625" viewBox="0 0 20.001953125 17.500244140625" fill="none">
<path d="M10.0024 16.2502C13.501 14.2498 19.7519 9.50017 19.0021 5.74914C18.2523 1.99963 15.2512 -0.999371 10.0024 2.75014C7.75119 1.5003 2.95231 -0.0996716 1.75082 3.50065C0.251171 8.00067 4.00206 14.7507 10.0024 16.2502Z"   fill="#FFFFFF" >
</path>
<path d="M13.832 0C14.648 0.00175001 15.456 0.168001 16.208 0.490003C16.958 0.810255 17.636 1.28101 18.202 1.87076C19.356 3.08002 20 4.68828 20.002 6.35954C20.002 10.8203 15.142 15.1306 10.322 17.4301C10.222 17.4774 10.112 17.5019 10.002 17.5001C9.89195 17.5019 9.78195 17.4774 9.68195 17.4301C4.86195 15.1306 0.00195312 10.8203 0.00195312 6.35079C0.00195312 4.68303 0.641953 3.07827 1.79195 1.87076C2.35795 1.27926 3.03795 0.810255 3.79195 0.488253C4.54395 0.166251 5.35395 0.00175001 6.17195 0C7.56995 0 8.92595 0.488253 10.002 1.38076C11.078 0.488253 12.434 0 13.832 0ZM10.002 15.9198C5.85195 13.8496 1.50195 10.0503 1.50195 6.35079C1.50195 5.06978 1.99195 3.83952 2.87195 2.91027C3.29795 2.46402 3.80995 2.10876 4.37795 1.86551C4.94395 1.62401 5.55595 1.49976 6.17195 1.49976C6.78995 1.49801 7.40195 1.62401 7.96995 1.86726C8.53595 2.11226 9.04795 2.47101 9.47195 2.92077C9.61395 3.06077 9.80195 3.14127 10.002 3.15002C10.18 3.13952 10.35 3.07652 10.492 2.96977L10.552 2.91027C10.976 2.46402 11.488 2.11051 12.052 1.86726C12.618 1.62576 13.226 1.49976 13.842 1.49976C14.458 1.49976 15.068 1.62576 15.634 1.87076C16.2 2.11401 16.71 2.47101 17.132 2.92077C18.01 3.84652 18.5 5.07328 18.502 6.35079C18.502 10.0503 14.152 13.8496 10.002 15.9198Z" fill-rule="evenodd"  fill="#808080" >
</path>
</svg>
