<svg t="1728474880071" class="icon" viewBox="0 0 1024 1024" version="1.1" xmlns="http://www.w3.org/2000/svg" p-id="2437" width="200" height="200"><path d="M402.3296 642.304m-258.816 0a258.816 258.816 0 1 0 517.632 0 258.816 258.816 0 1 0-517.632 0Z" fill="#ffffff" p-id="2438" data-spm-anchor-id="a313x.collections_detail.0.i22.699b3a81SqTe9G" class="selected"></path><path d="M832.3072 931.84H191.6928c-39.5264 0-71.68-32.1536-71.68-71.68V339.7632c0-26.2144 14.2848-50.2784 37.2736-62.8736l320.3072-175.3088c21.5552-11.8272 47.2576-11.776 68.864 0l320.3072 175.3088c22.9888 12.5952 37.2736 36.6592 37.2736 62.8736V860.16c-0.0512 39.5264-32.2048 71.68-71.7312 71.68zM512 154.2144c-1.6896 0-3.3792 0.4096-4.9152 1.28L186.7776 330.8032c-3.2768 1.792-5.3248 5.2224-5.3248 8.96V860.16c0 5.632 4.608 10.24 10.24 10.24h640.6144c5.632 0 10.24-4.608 10.24-10.24V339.7632c0-3.7376-2.048-7.168-5.3248-8.96l-320.3072-175.3088c-1.536-0.8704-3.2256-1.28-4.9152-1.28z" fill="#55524f" p-id="2439"></path><path d="M621.6192 711.2704H402.3296c-16.9472 0-30.72-13.7728-30.72-30.72s13.7728-30.72 30.72-30.72h219.2896c16.9472 0 30.72 13.7728 30.72 30.72s-13.7216 30.72-30.72 30.72z" fill="#55524f" p-id="2440"></path></svg>