<svg xmlns="http://www.w3.org/2000/svg" xmlns:xlink="http://www.w3.org/1999/xlink" width="24" height="24" viewBox="0 0 24 24" fill="none">
<path d="M5.00293 22L9.00293 22L15.0029 22L19.0029 22C20.1059 22 21.0029 21.103 21.0029 20L21.0029 11C21.0029 10.735 20.8979 10.48 20.7099 10.293L12.7099 2.29301C12.3189 1.90201 11.6869 1.90201 11.2959 2.29301L3.29593 10.293C3.10793 10.48 3.00293 10.735 3.00293 11L3.00293 20C3.00293 21.103 3.89993 22 5.00293 22ZM10.0029 20L10.0029 15L14.0029 15L14.0029 20L10.0029 20ZM5.00293 11.414L12.0029 4.41401L19.0029 11.414L19.0039 20L16.0029 20L16.0029 15C16.0029 13.897 15.1059 13 14.0029 13L10.0029 13C8.89993 13 8.00293 13.897 8.00293 15L8.00293 20L5.00293 20L5.00293 11.414Z"  style="mix-blend-mode:normal" fill="#2772F3" >
</path>
</svg>
