<svg xmlns="http://www.w3.org/2000/svg" xmlns:xlink="http://www.w3.org/1999/xlink" width="17.4505615234375" height="17.4521484375" viewBox="0 0 17.4505615234375 17.4521484375" fill="none">
<path d="M6.84657 0.25L0.767776 0.25C0.483002 0.25 0.25 0.483002 0.25 0.767776L0.25 6.84656C0.25 7.13133 0.483002 7.36433 0.767776 7.36433L6.84657 7.36433C7.13135 7.36433 7.36433 7.13135 7.36433 6.84656L7.36433 0.767792C7.36433 0.483017 7.13135 0.250015 6.84657 0.250015L6.84657 0.25ZM6.32871 1.2856L1.2855 1.2856L1.2855 6.3288L6.32871 6.3288L6.32871 1.2856ZM17.2006 1.93029C17.2006 1.64431 16.9688 1.4125 16.6829 1.4125L10.6041 1.4125C10.3181 1.4125 10.0863 1.64431 10.0863 1.93029C10.0863 2.21624 10.3181 2.44805 10.6041 2.44805L16.6829 2.44805C16.9688 2.44805 17.2006 2.21624 17.2006 1.93029ZM16.6829 2.1802L10.6046 2.1802L10.6046 1.6802L16.6829 1.6802L16.6829 2.1802ZM17.2006 5.68669C17.2006 5.40071 16.9688 5.1689 16.6829 5.1689L10.6041 5.1689C10.3181 5.1689 10.0863 5.40071 10.0863 5.68669C10.0863 5.97266 10.3181 6.20447 10.6041 6.20447L16.6829 6.20447C16.9688 6.20447 17.2006 5.97266 17.2006 5.68669ZM10.6046 5.4368L16.6829 5.4368L16.6829 5.9368L10.6046 5.9368L10.6046 5.4368ZM0.25 16.6845C0.25 16.9692 0.483002 17.2022 0.767776 17.2022L6.84657 17.2022C7.13135 17.2022 7.36433 16.9692 7.36433 16.6845L7.36433 10.6057C7.36433 10.3209 7.13135 10.0879 6.84657 10.0879L0.767776 10.0879C0.483002 10.0879 0.25 10.3209 0.25 10.6057L0.25 16.6845ZM6.32871 11.1234L1.2855 11.1234L1.2855 16.1666L6.32871 16.1666L6.32871 11.1234ZM16.6829 11.2477C16.9688 11.2477 17.2006 11.4795 17.2006 11.7655C17.2006 12.0515 16.9688 12.2833 16.6829 12.2833L10.6041 12.2833C10.3181 12.2833 10.0863 12.0515 10.0863 11.7655C10.0863 11.4795 10.3181 11.2477 10.6041 11.2477L16.6829 11.2477ZM10.6046 12.0155L16.6829 12.0155L16.6829 11.5155L10.6046 11.5155L10.6046 12.0155ZM16.6829 15.0042C16.9688 15.0042 17.2006 15.236 17.2006 15.522C17.2006 15.808 16.9688 16.0398 16.6829 16.0398L10.6041 16.0398C10.3181 16.0398 10.0863 15.808 10.0863 15.522C10.0863 15.236 10.3181 15.0042 10.6041 15.0042L16.6829 15.0042ZM16.6829 15.272L10.6046 15.272L10.6046 15.772L16.6829 15.772L16.6829 15.272Z" stroke="rgba(39, 114, 243, 1)" stroke-width="0.5"    fill-rule="evenodd"  fill="#2772F3" >
</path>
</svg>
