<svg xmlns="http://www.w3.org/2000/svg" xmlns:xlink="http://www.w3.org/1999/xlink" width="15.5" height="15.500091552734375" viewBox="0 0 15.5 15.500091552734375" fill="none">
<path d="M6.08745 0.25L0.708191 0.25C0.456188 0.25 0.25 0.456169 0.25 0.708149L0.25 6.08689C0.25 6.33887 0.456188 6.54504 0.708191 6.54504L6.08745 6.54504C6.33945 6.54504 6.54562 6.33889 6.54562 6.08689L6.54562 0.708163C6.54562 0.456183 6.33945 0.250014 6.08745 0.250014L6.08745 0.25ZM5.62936 1.1664L1.1665 1.1664L1.1665 5.62882L5.62936 5.62882L5.62936 1.1664ZM15.2502 1.73676C15.2502 1.48372 15.0451 1.2786 14.792 1.2786L9.41279 1.2786C9.15974 1.2786 8.9546 1.48372 8.9546 1.73676C8.9546 1.98978 9.15974 2.1949 9.41281 2.1949L14.792 2.1949C15.0451 2.1949 15.2502 1.98978 15.2502 1.73676ZM14.7919 1.9867L9.4131 1.9867L9.4131 1.4867L14.7919 1.4867L14.7919 1.9867ZM15.2502 5.06066C15.2502 4.80762 15.0451 4.6025 14.792 4.6025L9.41279 4.6025C9.15974 4.6025 8.9546 4.80762 8.9546 5.06066C8.9546 5.3137 9.15974 5.51881 9.41281 5.51881L14.792 5.51881C15.0451 5.51881 15.2502 5.3137 15.2502 5.06066ZM9.4131 4.8107L14.7919 4.8107L14.7919 5.3107L9.4131 5.3107L9.4131 4.8107ZM0.25 14.7919C0.25 15.0439 0.456188 15.2501 0.708191 15.2501L6.08745 15.2501C6.33945 15.2501 6.54562 15.0439 6.54562 14.7919L6.54562 9.41316C6.54562 9.16117 6.33945 8.955 6.08745 8.955L0.708191 8.955C0.456188 8.955 0.25 9.16117 0.25 9.41315L0.25 14.7919ZM5.62936 9.8712L1.1665 9.8712L1.1665 14.3336L5.62936 14.3336L5.62936 9.8712ZM14.792 9.9812C15.0451 9.98121 15.2502 10.1863 15.2502 10.4394C15.2502 10.6924 15.0451 10.8975 14.792 10.8975L9.41281 10.8975C9.15975 10.8975 8.9546 10.6924 8.9546 10.4394C8.9546 10.1863 9.15975 9.9812 9.41281 9.9812L14.792 9.9812ZM9.4131 10.6894L14.7919 10.6894L14.7919 10.1894L9.4131 10.1894L9.4131 10.6894ZM14.792 13.3051C15.0451 13.3051 15.2502 13.5102 15.2502 13.7633C15.2502 14.0163 15.0451 14.2214 14.792 14.2214L9.41281 14.2214C9.15975 14.2214 8.9546 14.0163 8.9546 13.7633C8.9546 13.5102 9.15975 13.3051 9.41281 13.3051L14.792 13.3051ZM14.7919 13.5132L9.4131 13.5132L9.4131 14.0132L14.7919 14.0132L14.7919 13.5132Z" stroke="#2772F3" stroke-width="0.5"    fill-rule="evenodd"  fill="#2772F3" >
</path>
</svg>
