<svg xmlns="http://www.w3.org/2000/svg" xmlns:xlink="http://www.w3.org/1999/xlink" width="10.0145263671875" height="12.0179443359375" viewBox="0 0 10.0145263671875 12.0179443359375" fill="none">
<path d="M1.33996 8.55844C1.30736 8.52351 1.27973 8.48425 1.25784 8.44177C0.445272 7.51123 -0.00171169 6.31727 4.92608e-06 5.08188C4.92608e-06 2.27431 2.24227 0 5.00779 0C5.96025 0.000553001 6.89213 0.277091 7.6907 0.796159C7.7558 0.821195 7.81539 0.860251 7.86596 0.910825C8.4464 1.32137 8.93385 1.84959 9.29654 2.46108C9.38316 2.53869 9.44124 2.64635 9.46077 2.76452C9.82571 3.48261 10.0155 4.27689 10.0146 5.08239L10.0146 5.08289C10.0144 6.38058 9.53176 7.5581 8.74273 8.4573C8.72193 8.49412 8.69671 8.52825 8.66761 8.55894L5.47648 11.7255C5.4222 11.8477 5.32059 11.9425 5.19498 11.9882C5.06938 12.0339 4.93059 12.0266 4.81051 11.9679C4.72136 11.9327 4.64528 11.8708 4.59269 11.7906L1.33996 8.55844ZM5.00761 7.01122C3.90116 7.01122 3.0042 6.11426 3.0042 5.00781C3.0042 3.90136 3.90116 3.0044 5.00736 3.0044L5.00749 3.0044C6.11394 3.0044 7.0109 3.90136 7.0109 5.00781C7.0109 6.11426 6.11394 7.01122 5.00761 7.01122Z" fill-rule="evenodd"  fill="#45BBFF" >
</path>
</svg>
