<svg xmlns="http://www.w3.org/2000/svg" xmlns:xlink="http://www.w3.org/1999/xlink" width="15.48095703125" height="15.867919921875" viewBox="0 0 15.48095703125 15.867919921875" fill="none">
<path d="M12.0417 1.69128C14.1919 3.12683 15.4825 5.54202 15.4808 8.1274C15.4808 12.4024 12.0154 15.8678 7.74038 15.8678C3.46537 15.8678 0 12.4024 0 8.1274C-0.00177765 5.54456 1.28614 3.13135 3.43287 1.69515C3.7879 1.45702 4.26874 1.55181 4.50685 1.90684C4.74496 2.26188 4.65018 2.74271 4.29515 2.98083C2.02923 4.49817 1.02267 7.31926 1.81633 9.92826C2.61 12.5372 5.01704 14.3199 7.74406 14.3184C10.4711 14.3169 12.8761 12.5315 13.6669 9.92158C14.4576 7.3117 13.4479 4.49175 11.1802 2.97695C10.8369 2.73468 10.7495 2.26272 10.9834 1.91362C11.2174 1.56452 11.6871 1.46583 12.0417 1.69127L12.0417 1.69128ZM7.74038 0C8.16788 0 8.51442 0.346554 8.51442 0.774044L8.51442 6.19232C8.51442 6.6198 8.16788 6.96635 7.74039 6.96635C7.3129 6.96635 6.96635 6.6198 6.96635 6.19232L6.96635 0.774044C6.96635 0.346554 7.3129 0 7.74039 0L7.74038 0Z"   fill="#333333" >
</path>
</svg>
