<svg xmlns="http://www.w3.org/2000/svg" xmlns:xlink="http://www.w3.org/1999/xlink" width="16.53173828125" height="16.556396484375" viewBox="0 0 16.53173828125 16.556396484375" fill="none">
<path d="M0.000802875 14.8694C-0.000267625 12.6868 -0.000267625 10.5042 0.000802875 8.32158C0.00125682 7.36156 0.726745 6.63695 1.68432 6.63598C1.77505 6.63588 1.86578 6.63565 1.95652 6.63541C2.22384 6.63471 2.49117 6.63401 2.75846 6.63701C3.03489 6.64019 3.26217 6.84148 3.29691 7.10363C3.33477 7.3897 3.17432 7.64232 2.90146 7.71593C2.83656 7.73345 2.76609 7.73571 2.69812 7.7362C2.51763 7.73726 2.33712 7.73711 2.1566 7.73696C2.00572 7.73684 1.85484 7.73671 1.70397 7.7373C1.32622 7.73882 1.10092 7.96557 1.10085 8.34362C1.10066 9.18688 1.10068 10.0301 1.1007 10.8734C1.10071 11.3595 1.10072 11.8457 1.10069 12.3318C1.10069 12.3682 1.10077 12.4044 1.10077 12.4648L1.10079 12.4648C1.14864 12.42 1.17873 12.3933 1.20714 12.3649C2.31702 11.2553 3.42736 10.1462 4.53573 9.03521C4.70805 8.86242 4.90623 8.79638 5.13854 8.87395C5.50845 8.99737 5.63005 9.4558 5.37572 9.75139C5.34349 9.78893 5.3073 9.82293 5.27233 9.85802C3.90949 11.2209 2.54698 12.5842 1.18254 13.9455C1.12426 14.0037 1.09683 14.06 1.09881 14.1439C1.10269 14.3046 1.10205 14.4655 1.10142 14.6263C1.1011 14.7055 1.10079 14.7846 1.10101 14.8637C1.102 15.2254 1.33073 15.4556 1.69484 15.4559C2.5958 15.4567 3.49674 15.4566 4.39769 15.4564C4.71946 15.4564 5.04123 15.4564 5.363 15.4564L8.58307 15.4564C8.53613 15.4065 8.50695 15.3739 8.47602 15.343C7.18869 14.0555 5.90189 12.7673 4.61289 11.4814C4.4455 11.3143 4.36597 11.1254 4.43203 10.8929C4.54142 10.5077 5.00841 10.3678 5.314 10.6261C5.35173 10.658 5.38616 10.6939 5.42113 10.7289C6.24819 11.5556 7.07493 12.3829 7.90166 13.2096C7.93094 13.2393 7.95594 13.2732 7.97018 13.29C9.84616 11.4308 11.7122 9.58166 13.5883 7.72246C13.5465 7.69451 13.5237 7.67809 13.4999 7.66344C13.2888 7.53399 13.1893 7.3059 13.2396 7.06554C13.2863 6.8424 13.4832 6.64794 13.7204 6.64269C13.782 6.64132 13.8437 6.63975 13.9054 6.63818C14.2972 6.62823 14.6909 6.61823 15.0784 6.65819C15.9284 6.74572 16.5294 7.44689 16.5306 8.30291C16.5321 9.38933 16.5318 10.4757 16.5315 11.5621C16.5314 12.0146 16.5312 12.4672 16.5312 12.9198C16.5312 13.1225 16.5314 13.3253 16.5315 13.528C16.5317 13.9766 16.5319 14.4252 16.531 14.8739C16.5291 15.835 15.8091 16.5554 14.8458 16.5556C10.4577 16.5566 6.06967 16.5567 1.68153 16.5555C0.720193 16.5553 0.00133836 15.8326 0.000802875 14.8694ZM15.0664 7.77987L15.0664 7.77987C15.2658 7.83779 15.4154 8.0289 15.4296 8.25601C15.4314 8.28445 15.4312 8.31299 15.4309 8.34153C15.4309 8.35109 15.4308 8.36065 15.4308 8.3702C15.4308 9.08759 15.4308 9.80497 15.4308 10.5224C15.4308 11.9571 15.4308 13.3919 15.4308 14.8267C15.4308 15.2372 15.2138 15.456 14.8053 15.4561C13.5698 15.4563 12.3344 15.4563 11.099 15.4563C10.746 15.4563 10.393 15.4563 10.04 15.4563L9.92347 15.4563C9.92104 15.2042 9.75045 15.055 9.59053 14.8971C9.32224 14.6322 9.05704 14.3643 8.7787 14.086C10.8752 11.9832 12.9689 9.88351 15.0664 7.77987Z" fill-rule="evenodd"  fill="#2772F3" >
</path>
<path d="M10.601 8.79305C10.0915 9.32273 9.5767 9.8477 9.04969 10.3598C8.58432 10.812 7.95382 10.8061 7.4813 10.3627C6.70575 9.63489 5.94703 8.8883 5.29579 8.04578C4.71609 7.29591 4.22389 6.48903 3.97621 5.56148C3.31105 3.07125 4.94166 0.521746 7.4813 0.069862C9.90203 -0.360935 12.204 1.24472 12.635 3.66989C12.6801 3.9239 12.6912 4.18395 12.718 4.44109C12.7024 5.13991 12.5398 5.79913 12.2363 6.4251C11.8129 7.29849 11.274 8.09338 10.601 8.79305ZM9.77159 8.06724C9.30409 8.55258 8.82597 9.02771 8.35214 9.50702C8.32577 9.53369 8.29606 9.55716 8.24427 9.60318L8.24424 9.60318C7.70388 9.04104 7.16285 8.48423 6.62883 7.92096C6.06619 7.32743 5.62867 6.6475 5.2722 5.91377C4.30249 3.9181 5.48584 1.56416 7.66465 1.15411C9.53218 0.802649 11.3483 2.13408 11.573 4.01693C11.6567 4.71833 11.5276 5.37824 11.214 6.0084C10.8363 6.76758 10.3594 7.45703 9.77159 8.06724Z" fill-rule="evenodd"  fill="#2772F3" >
</path>
<path d="M8.26324 5.53527C7.65703 5.53405 7.15828 5.03202 7.16201 4.42683C7.16576 3.82342 7.65828 3.33244 8.2625 3.32997C8.86938 3.32746 9.36925 3.82507 9.3695 4.43194C9.3698 5.03803 8.86992 5.53649 8.26324 5.53524L8.26324 5.53527Z"   fill="#2772F3" >
</path>
</svg>
