<svg xmlns="http://www.w3.org/2000/svg" xmlns:xlink="http://www.w3.org/1999/xlink" width="18.50048828125" height="18.02001953125" viewBox="0 0 18.50048828125 18.02001953125" fill="none">
<path d="M9.26562 18.02C8.88037 18.02 8.49512 17.8745 8.19922 17.5845L6.19043 15.6147L2.6543 15.6147C1.19043 15.6147 0 14.4238 0 12.96L0 2.6543C0 1.19043 1.19043 0 2.6543 0L15.8457 0C17.3096 0 18.5005 1.19043 18.5005 2.6543L18.5005 12.96C18.5005 14.4238 17.3096 15.6147 15.8457 15.6147L12.4741 15.6147L10.2974 17.6172C10.0054 17.8862 9.63525 18.02 9.26562 18.02ZM2.6543 1.59912C2.07227 1.59912 1.59863 2.07227 1.59863 2.6543L1.59863 12.96C1.59863 13.542 2.07227 14.0156 2.6543 14.0156L6.34961 14.0156C6.66797 14.0156 6.96826 14.1382 7.19531 14.3604L9.26758 16.3921L11.5039 14.335C11.7275 14.1289 12.0181 14.0156 12.3218 14.0156L15.8457 14.0156C16.4272 14.0156 16.9009 13.542 16.9009 12.96L16.9009 2.6543C16.9009 2.07227 16.4272 1.59912 15.8457 1.59912L2.6543 1.59912Z"   fill="#333333" >
</path>
<path d="M11.5269 9.80371L6.97217 9.80371C6.53076 9.80371 6.17285 9.4458 6.17285 9.00439C6.17285 8.5625 6.53076 8.20459 6.97217 8.20459L11.5269 8.20459C11.9683 8.20459 12.3262 8.5625 12.3262 9.00439C12.3262 9.4458 11.9683 9.80371 11.5269 9.80371Z"   fill="#333333" >
</path>
</svg>
