<svg xmlns="http://www.w3.org/2000/svg" xmlns:xlink="http://www.w3.org/1999/xlink" width="15.7314453125" height="16.895751953125" viewBox="0 0 15.7314453125 16.895751953125" fill="none">
<path d="M12.4457 8.1908C12.4157 7.7655 12.0821 7.44485 11.6695 7.44485L4.06177 7.44482C3.6525 7.44482 3.30664 7.79425 3.30664 8.20776C3.30664 8.62124 3.65253 8.97058 4.06177 8.97058L11.6911 8.97058C12.1005 8.97058 12.4464 8.62124 12.4464 8.20776L12.4457 8.1908Z"   fill="#333333" >
</path>
<path d="M6.11512 2.26815L9.65961 2.26815C10.1978 2.26815 10.6525 1.74879 10.6525 1.13405C10.6525 0.508728 10.1974 0 9.63791 0L6.11512 7.62939e-06C5.55566 7.62939e-06 5.10059 0.508705 5.10059 1.13405C5.10059 1.75938 5.5557 2.26815 6.11512 2.26815Z"   fill="#333333" >
</path>
<path d="M11.6911 4.60669L4.06177 4.60669C3.6525 4.60669 3.30664 4.95605 3.30664 5.36966C3.30664 5.7832 3.65253 6.13254 4.06177 6.13254L11.6911 6.13254C12.1005 6.13254 12.4464 5.7832 12.4464 5.36966C12.4463 4.95602 12.1005 4.60669 11.6911 4.60669Z"   fill="#333333" >
</path>
<path d="M11.6695 10.5232L4.06177 10.5232C3.6525 10.5232 3.30664 10.8726 3.30664 11.2861C3.30664 11.6996 3.65253 12.049 4.06177 12.049L11.6911 12.049C12.1005 12.049 12.4464 11.6996 12.4464 11.2861L12.4458 11.2692C12.4157 10.8439 12.082 10.5232 11.6695 10.5232Z"   fill="#333333" >
</path>
<path d="M15.1464 1.17276C14.7408 0.733925 14.1587 0.501953 13.4633 0.501953L12.4475 0.501953C12.0427 0.501953 11.6059 0.768631 11.6059 1.19931C11.6059 1.60641 12.0228 2.00596 12.4475 2.00596L13.4633 2.00596C13.9367 2.00596 14.2426 2.31492 14.2426 2.79316L14.2426 14.6047C14.2426 15.0829 13.9367 15.3919 13.4633 15.3919L2.52735 15.3919C2.03712 15.3919 1.48879 15.0552 1.48879 14.6047L1.48878 2.79318C1.48878 2.31494 1.79465 2.00598 2.26807 2.00598L3.54321 2.00598C3.91734 2.00598 4.16869 1.68177 4.16869 1.19933C4.16869 0.762649 3.93485 0.501976 3.54321 0.501976L2.26807 0.501976C0.847847 0.501976 0 1.36668 0 2.81501L0 14.4955C0 15.9537 0.932678 16.8959 2.37612 16.8959L13.3552 16.8959C14.8875 16.8959 15.7314 16.0434 15.7314 14.4955L15.7314 2.81499C15.7314 2.15468 15.5291 1.5868 15.1464 1.17276Z"   fill="#333333" >
</path>
</svg>
