<svg xmlns="http://www.w3.org/2000/svg" xmlns:xlink="http://www.w3.org/1999/xlink" width="24" height="24" viewBox="0 0 24 24" fill="none">
<path d="M19.875 3L4.125 3C2.953 3 2 3.897 2 5L2 19C2 20.103 2.953 21 4.125 21L19.875 21C21.047 21 22 20.103 22 19L22 5C22 3.897 21.047 3 19.875 3ZM19.875 19L4.125 19C4.068 19 4.029 18.984 4.012 18.984C4.005 18.984 4.001 18.986 4 18.992L3.988 5.046C3.995 5.036 4.04 5 4.125 5L19.875 5C19.954 5.001 19.997 5.028 20 5.008L20.012 18.954C20.005 18.964 19.96 19 19.875 19Z"  style="mix-blend-mode:normal" fill="#217EFD" >
</path>
<path d="M13 15L6 15L6 17L13 17L14 17L18 17L18 15L14 15L13 15ZM6 11L14 11L14 13L6 13L6 11ZM6 7L17 7L17 9L6 9L6 7Z"  style="mix-blend-mode:normal" fill="#217EFD" >
</path>
</svg>
