<svg xmlns="http://www.w3.org/2000/svg" xmlns:xlink="http://www.w3.org/1999/xlink" width="66.04638671875" height="72.86150360107422" viewBox="0 0 66.04638671875 72.86150360107422" fill="none">
<path d="M61.6799 63.4394C62.1699 60.0895 48.5199 47.8294 45.1599 47.3395C43.4 47.0828 42.0626 49.2568 40.7927 51.321C39.6382 53.1978 38.5395 54.9838 37.2299 54.7695C34.4699 54.3095 27.6299 47.7994 23.5699 42.5094C19.6499 37.1194 15.3399 28.7094 15.6799 25.9395C16.0199 23.1695 24.5599 23.7994 25.0499 20.4395C25.5399 17.0795 17.6499 0.509451 14.2899 0.0194505C10.9199 -0.470549 1.06986 8.39945 0.0998596 15.1095C-0.87014 21.8295 5.32986 35.8095 14.1999 48.0094L15.6399 49.9295C24.8299 61.8995 36.4799 71.7995 43.1899 72.7694C49.9099 73.7394 61.1999 66.7995 61.6799 63.4394ZM63.1098 40.5095C61.8298 40.3195 60.8798 39.1995 60.9298 37.8895C61.4798 23.9695 52.0798 11.3995 38.5798 7.97945C37.2198 7.63946 36.3898 6.24946 36.7398 4.88946C37.0798 3.52946 38.4698 2.68946 39.8298 3.04946C55.6498 7.04946 66.6598 21.7895 66.0198 38.0895C65.9698 39.4895 64.7898 40.5895 63.3798 40.5295C63.2898 40.5295 63.1998 40.5195 63.1098 40.5095ZM35.8798 16.8594C35.5998 17.7494 36.0898 18.7094 36.9799 18.9894C44.5398 21.4094 49.7498 28.3694 49.9298 36.3094C49.9498 37.1494 50.5798 37.8294 51.3898 37.9494C51.4799 37.9594 51.5698 37.9694 51.6698 37.9694C52.6098 37.9494 53.3498 37.1694 53.3298 36.2394C53.0998 26.8494 46.9498 18.6194 38.0098 15.7594C37.1098 15.4794 36.1598 15.9694 35.8798 16.8594Z" fill-rule="evenodd"  fill="#2994FF" >
</path>
</svg>
