<svg xmlns="http://www.w3.org/2000/svg" xmlns:xlink="http://www.w3.org/1999/xlink" width="15.68994140625" height="15" viewBox="0 0 15.68994140625 20" fill="none">
<path d="M0 7.65806C0 3.40987 3.53135 0 7.84504 0C12.1587 0 15.6901 3.40987 15.6901 7.65806C15.6901 9.83948 14.7551 11.8053 13.2632 13.1964C12.41 13.9919 11.8347 14.9013 11.8347 15.842L11.8347 15.8449L11.834 16.026C11.8254 18.2233 10.0417 20 7.84438 20C5.63482 20 3.84606 18.2042 3.85475 15.9947L3.85536 15.842C3.85536 15.8415 3.85536 15.841 3.85536 15.8406C3.85479 14.9004 3.27963 13.9915 2.42686 13.1964C0.934981 11.8053 0 9.83948 0 7.65806ZM5.42301 16.592C5.68486 17.686 6.66925 18.5 7.84438 18.5C9.01871 18.5 10.0037 17.6868 10.2657 16.592L5.42301 16.592ZM10.4075 15.092C10.6449 13.8724 11.4288 12.8559 12.2403 12.0993C13.4456 10.9754 14.1901 9.39989 14.1901 7.65806C14.1901 4.27581 11.3683 1.5 7.84504 1.5C4.32176 1.5 1.5 4.27581 1.5 7.65806C1.5 9.39989 2.24453 10.9754 3.44982 12.0993C4.26124 12.8559 5.04514 13.8724 5.2826 15.092L10.4075 15.092ZM5.69967 10.2916C6.02784 10.0388 6.49876 10.1 6.7515 10.4282L7.64715 11.5911C7.74721 11.7211 7.94316 11.7211 8.04325 11.5912L8.93944 10.428C9.19224 10.0999 9.66317 10.0389 9.99129 10.2917C10.3194 10.5445 10.3805 11.0154 10.1277 11.3435L9.23148 12.5067C8.53084 13.416 7.15917 13.4159 6.45873 12.5064L5.56308 11.3434C5.31034 11.0152 5.3715 10.5443 5.69967 10.2916Z" fill-rule="evenodd"  fill="#2772F3" >
</path>
</svg>
