<svg xmlns="http://www.w3.org/2000/svg" xmlns:xlink="http://www.w3.org/1999/xlink" width="24" height="24" viewBox="0 0 24 24" fill="none">
<path d="M10 18C11.846 18 13.543 17.365 14.897 16.312L19.293 20.708L20.707 19.294L16.311 14.898C17.365 13.543 18 11.846 18 10C18 5.589 14.411 2 10 2C5.589 2 2 5.589 2 10C2 14.411 5.589 18 10 18ZM10 4C13.309 4 16 6.691 16 10C16 13.309 13.309 16 10 16C6.691 16 4 13.309 4 10C4 6.691 6.691 4 10 4Z"  style="mix-blend-mode:normal" fill="#79747E" >
</path>
<path d="M11.4118 8.58609C11.7908 8.96609 11.9998 9.46809 11.9998 10.0001L13.9998 10.0001C13.9998 8.93509 13.5838 7.93109 12.8258 7.17209C11.3118 5.66009 8.68683 5.66009 7.17383 7.17209L8.58583 8.58809C9.34583 7.83009 10.6558 7.83209 11.4118 8.58609Z"  style="mix-blend-mode:normal" fill="#79747E" >
</path>
</svg>
