<svg xmlns="http://www.w3.org/2000/svg" xmlns:xlink="http://www.w3.org/1999/xlink" width="18" height="16.005615234375" viewBox="0 0 18 16.005615234375" fill="none">
<path d="M15.3 8.24391L17.13 8.24391C17.609 8.24391 18 7.85617 18 7.38391C18 6.91164 17.609 6.52391 17.13 6.52391L15.3 6.52391C14.821 6.52391 14.43 6.91061 14.43 7.38391C14.43 7.8572 14.821 8.24391 15.3 8.24391ZM15.37 5.56391C15.4853 5.56391 15.5931 5.5374 15.7 5.49391L17.39 4.79391C17.4031 4.79391 17.4171 4.78391 17.43 4.78391C17.4429 4.78391 17.4575 4.76391 17.47 4.76391C17.4825 4.76391 17.4978 4.74391 17.51 4.74391C17.5222 4.74391 17.5282 4.71391 17.54 4.71391C17.5518 4.71391 17.5686 4.69391 17.58 4.69391C17.5914 4.69391 17.599 4.66391 17.61 4.66391C17.621 4.66391 17.6295 4.64391 17.64 4.64391C17.6505 4.64391 17.67 4.61391 17.68 4.61391C17.69 4.61391 17.71 4.59434 17.71 4.58391C17.71 4.57345 17.73 4.55479 17.73 4.54391C17.73 4.533 17.76 4.52523 17.76 4.51391C17.76 4.50258 17.78 4.49562 17.78 4.48391C17.78 4.47217 17.81 4.45598 17.81 4.44391C17.81 4.43181 17.83 4.41633 17.83 4.40391C17.83 4.39147 17.85 4.38665 17.85 4.37391C17.85 4.36116 17.86 4.34691 17.86 4.33391C17.948 4.12159 17.9491 3.88519 17.86 3.67391C17.86 3.66092 17.84 3.64661 17.84 3.63391C17.84 3.6212 17.82 3.60629 17.82 3.59391C17.82 3.58153 17.8 3.57594 17.8 3.56391C17.8 3.55187 17.78 3.53556 17.78 3.52391C17.78 3.51223 17.76 3.50515 17.76 3.49391C17.76 3.48264 17.73 3.46473 17.73 3.45391C17.73 3.44306 17.7 3.43426 17.7 3.42391C17.7 3.41355 17.6801 3.39391 17.67 3.39391C17.6599 3.39391 17.6506 3.36391 17.64 3.36391C17.6294 3.36391 17.621 3.34391 17.61 3.34391C17.5989 3.34391 17.5815 3.31391 17.57 3.31391C17.5585 3.31391 17.5519 3.29391 17.54 3.29391C17.5281 3.29391 17.5122 3.26391 17.5 3.26391C17.4878 3.26391 17.4826 3.24391 17.47 3.24391C17.4574 3.24391 17.4429 3.22391 17.43 3.22391C17.4171 3.22391 17.4032 3.21391 17.39 3.21391C17.1751 3.12691 16.9338 3.12587 16.72 3.21391L15.03 3.91391C15.0169 3.91391 15.0029 3.93391 14.99 3.93391C14.9771 3.93391 14.9725 3.95391 14.96 3.95391C14.9475 3.95391 14.9322 3.97391 14.92 3.97391C14.9078 3.97391 14.8918 3.99391 14.88 3.99391C14.8682 3.99391 14.8614 4.01391 14.85 4.01391C14.8386 4.01391 14.831 4.04391 14.82 4.04391C14.809 4.04391 14.7905 4.07391 14.78 4.07391C14.7695 4.07391 14.76 4.10391 14.75 4.10391C14.74 4.10391 14.72 4.12345 14.72 4.13391C14.72 4.14434 14.7 4.153 14.7 4.16391C14.7 4.17479 14.67 4.18258 14.67 4.19391C14.67 4.20523 14.64 4.22217 14.64 4.23391C14.64 4.24562 14.62 4.25181 14.62 4.26391C14.62 4.27598 14.6 4.29147 14.6 4.30391C14.6 4.31633 14.58 4.33116 14.58 4.34391C14.58 4.35665 14.57 4.37088 14.57 4.38391C14.482 4.59622 14.4809 4.82263 14.57 5.03391L14.58 5.06391L14.59 5.09391L14.61 5.12391L14.63 5.14391L14.64 5.17391L14.66 5.20391L14.68 5.22391L14.7 5.25391L14.72 5.27391L14.74 5.29391L14.76 5.32391L14.79 5.34391L14.81 5.36391L14.84 5.38391L14.86 5.40391L14.89 5.41391L14.91 5.43391L14.94 5.45391L14.97 5.46391L15 5.48391L15.03 5.49391L15.06 5.50391C15.06 5.50391 15.0799 5.51391 15.09 5.51391C15.1 5.51391 15.1098 5.52391 15.12 5.52391C15.1302 5.52391 15.1397 5.53391 15.15 5.53391C15.1603 5.53391 15.1696 5.54391 15.18 5.54391C15.1904 5.54391 15.1995 5.54391 15.21 5.54391C15.2204 5.54391 15.2295 5.55391 15.24 5.55391C15.2505 5.55391 15.2594 5.55391 15.27 5.55391C15.2805 5.55391 15.2994 5.56391 15.31 5.56391C15.3206 5.56391 15.3294 5.56391 15.34 5.56391C15.3506 5.56391 15.3594 5.56391 15.37 5.56391ZM17.4 10.0339L15.7 9.33391C15.2587 9.15163 14.7545 9.35789 14.57 9.79391C14.3855 10.2299 14.5887 10.7316 15.03 10.9139L16.73 11.6139C16.8369 11.6584 16.9447 11.6839 17.06 11.6839C17.4111 11.6839 17.7248 11.4739 17.86 11.1539C18.0445 10.7189 17.8413 10.2162 17.4 10.0339ZM12.13 0.103906L6.61 3.26391L1.88 3.26391C0.840216 3.26391 0 4.1055 0 5.13391L0 9.90391C0 10.9313 0.839172 11.7639 1.88 11.7639L1.88 13.7239C1.88 14.9263 2.82309 15.9583 4.04 16.0039C5.31875 16.0515 6.38 15.0371 6.38 13.7839L6.38 11.7639L6.58 11.7639L12.15 14.6739C12.7108 14.967 13.38 14.5615 13.38 13.9339L13.38 0.833906C13.38 0.200063 12.6918 -0.200585 12.13 0.103906ZM11.88 10.6939C11.88 11.1631 11.4948 11.5439 11.02 11.5439C10.5452 11.5439 10.16 11.1631 10.16 10.6939L10.16 5.06391C10.16 4.59474 10.5452 4.22391 11.02 4.22391C11.4948 4.22391 11.88 4.59474 11.88 5.06391L11.88 10.6939Z"   fill="#2A82E4" >
</path>
</svg>
