<svg t="1728382749779" class="icon" viewBox="0 0 1024 1024" version="1.1" xmlns="http://www.w3.org/2000/svg" p-id="12597" width="200" height="200"><path d="M497.3568 407.5008m-174.6432 0a174.6432 174.6432 0 1 0 349.2864 0 174.6432 174.6432 0 1 0-349.2864 0Z" fill="#8a8a8a" p-id="12598" data-spm-anchor-id="a313x.collections_detail.0.i114.c8b83a81JlblCP" class="selected"></path><path d="M497.3568 599.4496c-122.7776 0-222.6688-99.8912-222.6688-222.6688s99.8912-222.6176 222.6688-222.6176 222.6688 99.8912 222.6688 222.6176-99.9424 222.6688-222.6688 222.6688z m0-404.3264c-100.1984 0-181.7088 81.5104-181.7088 181.6576s81.5104 181.7088 181.7088 181.7088 181.7088-81.5104 181.7088-181.7088-81.5616-181.6576-181.7088-181.6576z" fill="#55524F" p-id="12599"></path><path d="M497.3568 502.6816c-36.5056 0-70.7584-14.1824-96.5632-39.9872a20.52096 20.52096 0 0 1 0-28.9792 20.52096 20.52096 0 0 1 28.9792 0c18.0736 18.0736 42.0864 28.0064 67.6352 28.0064s49.5616-9.9328 67.6352-28.0064a20.52096 20.52096 0 0 1 28.9792 0 20.52096 20.52096 0 0 1 0 28.9792c-25.9072 25.8048-60.2112 39.9872-96.6656 39.9872z" fill="#55524F" p-id="12600"></path><path d="M714.7008 628.8384c55.6544 29.1328 92.5696 60.928 112.896 91.7504 21.1968 32.1536-7.936 70.6048-53.9136 70.6048H235.1616c-44.8 0-74.8032-37.0688-55.04-68.8128 36.352-58.3168 121.2416-132.608 318.0032-132.608 0 0.0512 119.04-11.9808 216.576 39.0656z" fill="#8a8a8a" p-id="12601" data-spm-anchor-id="a313x.collections_detail.0.i117.c8b83a81JlblCP" class="selected"></path><path d="M787.1488 867.6864H221.696c-29.4912 0-56.3712-14.9504-71.9872-40.0384-15.4112-24.7296-16.9472-55.04-4.1984-81.0496 42.1376-85.7088 137.472-187.904 352.3072-187.904 11.3152 0 20.48 9.1648 20.48 20.48s-9.1648 20.48-20.48 20.48c-193.7408 0-278.5792 89.7536-315.5456 165.0176-6.6048 13.4144-5.7856 28.5184 2.2016 41.3184 8.0896 12.9536 22.016 20.736 37.2224 20.736h565.504c15.5648 0 29.0816-7.5776 37.12-20.8384 8.0384-13.2096 8.5504-29.3888 1.3312-43.2128-25.0368-48.0768-62.208-86.3744-110.4896-113.7152a20.48 20.48 0 0 1 20.1728-35.6352c55.2448 31.3344 97.8432 75.2128 126.6176 130.4576 13.8752 26.624 12.8512 57.8048-2.6624 83.3536-15.4112 25.344-42.3424 40.5504-72.1408 40.5504z" fill="#55524F" p-id="12602"></path></svg>