<svg t="1728474988244" class="icon" viewBox="0 0 1024 1024" version="1.1" xmlns="http://www.w3.org/2000/svg" p-id="3982" width="200" height="200"><path d="M637.2864 657.408m-248.3712 0a248.3712 248.3712 0 1 0 496.7424 0 248.3712 248.3712 0 1 0-496.7424 0Z" fill="#ffffff" p-id="3983" data-spm-anchor-id="a313x.collections_detail.0.i51.699b3a81SqTe9G" class="selected"></path><path d="M195.328 367.3088m-62.5664 0a62.5664 62.5664 0 1 0 125.1328 0 62.5664 62.5664 0 1 0-125.1328 0Z" fill="#ffffff" p-id="3984" data-spm-anchor-id="a313x.collections_detail.0.i54.699b3a81SqTe9G" class="selected"></path><path d="M788.9408 232.704m-33.7408 0a33.7408 33.7408 0 1 0 67.4816 0 33.7408 33.7408 0 1 0-67.4816 0Z" fill="#ffffff" p-id="3985" data-spm-anchor-id="a313x.collections_detail.0.i55.699b3a81SqTe9G" class="selected"></path><path d="M498.7392 490.2912c-102.912 0-186.624-83.712-186.624-186.624s83.712-186.624 186.624-186.624 186.624 83.712 186.624 186.624-83.712 186.624-186.624 186.624z m0-332.2368c-80.2816 0-145.664 65.3312-145.664 145.664s65.3312 145.664 145.664 145.664 145.664-65.3312 145.664-145.664-65.3312-145.664-145.664-145.664zM698.3168 897.0752H288c-105.216 0-190.8224-85.6064-190.8224-190.8224s85.6064-190.8224 190.8224-190.8224h316.3136c11.3152 0 20.48 9.1648 20.48 20.48s-9.1648 20.48-20.48 20.48H288c-82.6368 0-149.8624 67.2256-149.8624 149.8624s67.2256 149.8624 149.8624 149.8624h410.368c82.6368 0 149.8624-67.2256 149.8624-149.8624s-67.2256-149.8624-149.8624-149.8624c-11.3152 0-20.48-9.1648-20.48-20.48s9.1648-20.48 20.48-20.48c105.216 0 190.8224 85.6064 190.8224 190.8224s-85.6064 190.8224-190.8736 190.8224z" fill="#2c2c2c" p-id="3986"></path></svg>